<svg width="230" height="28" viewBox="0 0 230 28" fill="none" xmlns="http://www.w3.org/2000/svg">
<path d="M8.9502 0.587402C12.9111 0.587402 14.8916 1.40625 14.8916 3.04395C14.8916 3.48828 14.79 3.8501 14.5869 4.12939C14.3838 4.40869 13.9966 4.71973 13.4253 5.0625C12.9302 5.36719 12.6128 5.76709 12.4731 6.26221C12.3462 6.75732 12.2827 7.76025 12.2827 9.271C12.2827 10.1597 12.4478 10.7056 12.7778 10.9087C12.9683 11.0356 13.2539 11.1118 13.6348 11.1372C14.0283 11.1626 14.9424 11.1753 16.377 11.1753C17.6846 11.1753 18.4971 11.1055 18.8145 10.9658C19.1318 10.8262 19.2905 10.4771 19.2905 9.91846C19.2905 8.24268 19.2144 7.07471 19.062 6.41455C18.9097 5.75439 18.6113 5.30371 18.167 5.0625C17.6084 4.74512 17.2402 4.47852 17.0625 4.2627C16.8848 4.03418 16.7959 3.73584 16.7959 3.36768C16.7959 2.84717 16.9927 2.37744 17.3862 1.9585C17.7798 1.52686 18.2939 1.23486 18.9287 1.08252C20.249 0.765137 21.9058 0.606445 23.8989 0.606445C26.2349 0.606445 27.9551 0.822266 29.0596 1.25391C30.1768 1.67285 30.7354 2.33301 30.7354 3.23438C30.7354 3.99609 30.3418 4.56738 29.5547 4.94824C29.0596 5.17676 28.7358 5.39893 28.5835 5.61475C28.4312 5.81787 28.3105 6.20508 28.2217 6.77637C28.1709 7.09375 28.1074 8.50293 28.0312 11.0039C27.9551 13.5049 27.917 15.4917 27.917 16.9644C27.917 19.5415 28.0122 21.1792 28.2026 21.8774C28.3042 22.2583 28.4185 22.5122 28.5454 22.6392C28.6724 22.7661 29.0723 23.02 29.7451 23.4009C30.2275 23.6675 30.4688 24.0737 30.4688 24.6196C30.4688 25.5845 29.8911 26.2891 28.7358 26.7334C27.5933 27.165 25.7334 27.3809 23.1562 27.3809C20.8965 27.3809 19.2271 27.1587 18.1479 26.7144C17.1704 26.3081 16.6816 25.6797 16.6816 24.8291C16.6816 24.1055 17.0562 23.5405 17.8052 23.1343C18.1733 22.9312 18.4209 22.728 18.5479 22.5249C18.6875 22.3218 18.8208 21.9473 18.9478 21.4014C19.1763 20.335 19.2905 19.0273 19.2905 17.4785C19.2905 16.6787 19.1699 16.1836 18.9287 15.9932C18.7002 15.8027 18.0908 15.7075 17.1006 15.7075C14.8281 15.7075 13.3809 15.8345 12.7588 16.0884C12.5049 16.1899 12.3462 16.4883 12.2827 16.9834C12.2065 17.5928 12.1685 18.3418 12.1685 19.2305C12.1685 20.6777 12.3716 21.7188 12.7778 22.3535C12.9175 22.5566 13.2476 22.8169 13.7681 23.1343C14.3013 23.439 14.5679 23.9404 14.5679 24.6387C14.5679 25.5273 13.9521 26.2065 12.7207 26.6763C11.4893 27.146 9.73096 27.3809 7.4458 27.3809C5.36377 27.3809 3.6626 27.165 2.34229 26.7334C1.771 26.543 1.32031 26.2764 0.990234 25.9336C0.672852 25.5781 0.51416 25.1909 0.51416 24.772C0.51416 24.353 0.615723 24.0293 0.818848 23.8008C1.02197 23.5723 1.46631 23.2803 2.15186 22.9248C2.50732 22.7471 2.75488 22.5186 2.89453 22.2393C3.04688 21.96 3.16113 21.4902 3.2373 20.8301C3.42773 19.3447 3.52295 17.4023 3.52295 15.0029C3.52295 14.5586 3.5166 14.0317 3.50391 13.4224C3.45312 10.3755 3.42773 8.63623 3.42773 8.20459C3.44043 7.11279 3.34521 6.39551 3.14209 6.05273C2.95166 5.69727 2.4375 5.31006 1.59961 4.89111C1.04102 4.62451 0.761719 4.22461 0.761719 3.69141C0.761719 2.40918 2.00586 1.52051 4.49414 1.02539C5.94141 0.733398 7.42676 0.587402 8.9502 0.587402ZM40.6301 9.34717V20.4111C40.6301 21.2871 40.7062 21.9282 40.8586 22.3345C41.0236 22.7407 41.3474 23.1152 41.8298 23.458C42.2233 23.7373 42.4836 23.9785 42.6105 24.1816C42.7502 24.3721 42.82 24.6196 42.82 24.9243C42.82 26.562 40.7443 27.3809 36.593 27.3809C34.3586 27.3809 32.5876 27.2031 31.28 26.8477C30.8356 26.7207 30.4738 26.4985 30.1945 26.1812C29.9279 25.8638 29.7946 25.502 29.7946 25.0957C29.7946 24.7529 29.8645 24.4863 30.0041 24.2959C30.1437 24.1055 30.4992 23.8008 31.0705 23.3818C31.4641 23.0898 31.7434 22.6138 31.9084 21.9536C32.0734 21.2935 32.156 20.3096 32.156 19.002C32.156 18.583 32.1242 17.8022 32.0607 16.6597C32.01 15.5044 31.9719 14.8315 31.9465 14.6411C31.8703 14.1206 31.5148 13.7207 30.8801 13.4414C30.093 13.0986 29.6994 12.5908 29.6994 11.918C29.6994 11.1182 30.2136 10.5215 31.2419 10.1279C32.6638 9.58203 34.1872 9.11865 35.8122 8.73779C37.4372 8.35693 38.694 8.1665 39.5827 8.1665C40.281 8.1665 40.6301 8.56006 40.6301 9.34717ZM36.8596 1.00635C37.9641 1.00635 38.84 1.21582 39.4875 1.63477C40.135 2.04102 40.4587 2.59326 40.4587 3.2915C40.4587 4.26904 39.9699 5.04346 38.9924 5.61475C37.4436 6.51611 35.571 6.9668 33.3747 6.9668C32.4479 6.9668 31.7116 6.78906 31.1657 6.43359C30.4294 5.97656 30.0612 5.3418 30.0612 4.5293C30.0612 3.4375 30.842 2.58057 32.4035 1.9585C33.9904 1.32373 35.4758 1.00635 36.8596 1.00635ZM53.0194 1.93945L52.848 7.8999C52.8354 8.49658 52.829 9.37256 52.829 10.5278C52.829 11.8101 52.848 12.5654 52.8861 12.7939C52.975 13.3145 53.2416 13.5747 53.6859 13.5747C54.0668 13.5747 54.6508 13.3335 55.4379 12.8511C56.225 12.356 56.6186 11.9878 56.6186 11.7466C56.6186 11.6069 56.4789 11.353 56.1996 10.9849C55.9965 10.7183 55.8949 10.4644 55.8949 10.2231C55.8949 8.85205 57.5834 8.1665 60.9604 8.1665C62.7123 8.1665 64.0961 8.34424 65.1117 8.69971C65.518 8.83936 65.8544 9.08057 66.121 9.42334C66.3876 9.76611 66.5209 10.1343 66.5209 10.5278C66.5209 11.0991 66.2479 11.499 65.702 11.7275C65.5878 11.7783 65.2196 11.8608 64.5976 11.9751C64.039 12.0767 63.3153 12.4258 62.4267 13.0225C61.538 13.6064 61.0937 14.0317 61.0937 14.2983C61.0937 14.4761 61.6269 15.314 62.6933 16.812C63.7724 18.2974 64.7753 19.5923 65.702 20.6968C66.2987 21.4204 66.7621 21.9282 67.0922 22.2202C67.435 22.5122 67.9047 22.8232 68.5014 23.1533C69.4154 23.6484 69.8725 24.2134 69.8725 24.8481C69.8725 25.521 69.5805 26.0479 68.9965 26.4287C68.4252 26.8096 67.6381 27 66.6352 27H60.4652C59.6908 26.9873 59.0878 26.7017 58.6562 26.1431L55.495 22.0869C54.6571 21.0205 54.143 20.3857 53.9525 20.1826C53.7748 19.9795 53.6225 19.8779 53.4955 19.8779C53.3432 19.8779 53.2416 19.9922 53.1908 20.2207C53.14 20.4492 53.1146 20.8809 53.1146 21.5156C53.1146 22.0869 53.1781 22.5059 53.3051 22.7725C53.432 23.0264 53.724 23.3374 54.1811 23.7056C54.5111 23.9722 54.6762 24.3657 54.6762 24.8862C54.6762 25.7749 54.2064 26.416 53.267 26.8096C52.3275 27.2031 50.7787 27.3999 48.6205 27.3999C46.0814 27.3999 44.4311 27.292 43.6693 27.0762C43.2377 26.9492 42.8695 26.6953 42.5648 26.3145C42.2602 25.9209 42.1078 25.5083 42.1078 25.0767C42.1078 24.5942 42.3744 24.1753 42.9076 23.8198C43.3646 23.5278 43.6566 23.3057 43.7836 23.1533C43.9105 23.001 44.0121 22.7598 44.0883 22.4297C44.3803 20.6523 44.5199 17.9102 44.5072 14.2031V10.0327C44.5072 8.61084 44.4311 7.70312 44.2787 7.30957C44.1391 6.91602 43.7836 6.68115 43.2123 6.60498C42.1713 6.46533 41.6508 6.03369 41.6508 5.31006C41.6508 4.82764 41.8793 4.396 42.3363 4.01514C42.7934 3.62158 43.5424 3.23438 44.5834 2.85352C47.9096 1.62207 50.3725 1.00635 51.9721 1.00635C52.6957 1.00635 53.0448 1.31738 53.0194 1.93945ZM85.5943 18.4688H76.6441C76.2506 18.4688 76.0538 18.6401 76.0538 18.9829C76.0538 19.8081 76.4981 20.5889 77.3868 21.3252C78.2882 22.0488 79.253 22.4106 80.2813 22.4106C80.8907 22.4106 81.5636 22.2964 82.2999 22.0679C83.0489 21.8267 83.6646 21.5347 84.1471 21.1919C84.5787 20.8872 84.9215 20.7349 85.1754 20.7349C85.5055 20.7349 85.8292 20.938 86.1466 21.3442C86.464 21.7505 86.6227 22.1694 86.6227 22.6011C86.6227 23.5151 86.0514 24.3975 84.9088 25.248C82.8902 26.7588 80.5606 27.5142 77.92 27.5142C75.254 27.5142 73.0196 26.7397 71.2169 25.1909C70.3409 24.4292 69.6173 23.5088 69.046 22.4297C68.297 20.9951 67.9225 19.4844 67.9225 17.8975C67.9225 15.7646 68.5699 13.8477 69.8648 12.1465C70.982 10.6738 72.4039 9.57568 74.1305 8.85205C75.4254 8.30615 76.8282 8.0332 78.339 8.0332C80.7511 8.0332 82.8014 8.71875 84.4898 10.0898C85.3404 10.7754 86.026 11.5879 86.5465 12.5273C87.1432 13.5938 87.4415 14.6348 87.4415 15.6504C87.4415 16.4756 87.2701 17.1548 86.9273 17.688C86.5846 18.2085 86.1402 18.4688 85.5943 18.4688ZM77.1393 14.9077H79.0626C79.8751 14.9077 80.2813 14.5332 80.2813 13.7842C80.2813 13.0986 80.0846 12.54 79.691 12.1084C79.2975 11.6768 78.7833 11.4609 78.1485 11.4609C77.4376 11.4609 76.879 11.7402 76.4728 12.2988C76.0919 12.8193 75.9015 13.3462 75.9015 13.8794C75.9015 14.2603 75.9903 14.5269 76.1681 14.6792C76.3585 14.8315 76.6822 14.9077 77.1393 14.9077ZM106.267 13.9937L101.335 23.5913C100.574 25.0767 99.9261 26.1113 99.3929 26.6953C98.8597 27.2666 98.2884 27.5522 97.679 27.5522C97.0823 27.5522 96.5999 27.3364 96.2317 26.9048C95.4573 26.0415 94.7781 25.064 94.1941 23.9722L88.7859 13.708C88.4939 13.1494 88.2083 12.7495 87.929 12.5083C87.6624 12.2544 87.2879 12.064 86.8055 11.937C85.8406 11.6577 85.3582 11.1372 85.3582 10.3755C85.3582 9.60107 85.9549 9.03613 87.1482 8.68066C88.3416 8.3252 90.2269 8.14746 92.804 8.14746C94.9622 8.14746 96.5491 8.30615 97.5647 8.62354C98.5931 8.92822 99.1072 9.4043 99.1072 10.0518C99.1072 10.5088 98.866 10.9468 98.3836 11.3657C98.0789 11.645 97.8821 11.8545 97.7933 11.9941C97.7044 12.1338 97.66 12.3115 97.66 12.5273C97.66 12.959 97.9393 13.6763 98.4978 14.6792C99.0564 15.6567 99.577 16.1455 100.059 16.1455C100.377 16.1455 100.637 16.0249 100.84 15.7837C101.043 15.5425 101.411 14.9204 101.945 13.9175C102.338 13.1812 102.535 12.6226 102.535 12.2417C102.535 11.937 102.332 11.5752 101.926 11.1562C101.494 10.6992 101.278 10.2739 101.278 9.88037C101.278 9.271 101.678 8.83301 102.478 8.56641C103.29 8.2998 104.617 8.1665 106.458 8.1665C109.048 8.1665 110.343 8.7251 110.343 9.84229C110.343 10.4897 109.879 10.9595 108.952 11.2515C108.229 11.48 107.734 11.7275 107.467 11.9941C107.213 12.2607 106.813 12.9272 106.267 13.9937ZM125.227 18.4688H116.276C115.883 18.4688 115.686 18.6401 115.686 18.9829C115.686 19.8081 116.13 20.5889 117.019 21.3252C117.92 22.0488 118.885 22.4106 119.914 22.4106C120.523 22.4106 121.196 22.2964 121.932 22.0679C122.681 21.8267 123.297 21.5347 123.779 21.1919C124.211 20.8872 124.554 20.7349 124.808 20.7349C125.138 20.7349 125.461 20.938 125.779 21.3442C126.096 21.7505 126.255 22.1694 126.255 22.6011C126.255 23.5151 125.684 24.3975 124.541 25.248C122.522 26.7588 120.193 27.5142 117.552 27.5142C114.886 27.5142 112.652 26.7397 110.849 25.1909C109.973 24.4292 109.25 23.5088 108.678 22.4297C107.929 20.9951 107.555 19.4844 107.555 17.8975C107.555 15.7646 108.202 13.8477 109.497 12.1465C110.614 10.6738 112.036 9.57568 113.763 8.85205C115.058 8.30615 116.46 8.0332 117.971 8.0332C120.383 8.0332 122.434 8.71875 124.122 10.0898C124.973 10.7754 125.658 11.5879 126.179 12.5273C126.775 13.5938 127.074 14.6348 127.074 15.6504C127.074 16.4756 126.902 17.1548 126.56 17.688C126.217 18.2085 125.772 18.4688 125.227 18.4688ZM116.771 14.9077H118.695C119.507 14.9077 119.914 14.5332 119.914 13.7842C119.914 13.0986 119.717 12.54 119.323 12.1084C118.93 11.6768 118.416 11.4609 117.781 11.4609C117.07 11.4609 116.511 11.7402 116.105 12.2988C115.724 12.8193 115.534 13.3462 115.534 13.8794C115.534 14.2603 115.623 14.5269 115.8 14.6792C115.991 14.8315 116.314 14.9077 116.771 14.9077ZM149.461 15.0601L149.727 21.7632C149.753 22.271 149.829 22.6455 149.956 22.8867C150.095 23.1279 150.489 23.5913 151.136 24.2769C151.327 24.48 151.422 24.7656 151.422 25.1338C151.422 25.9717 150.921 26.5557 149.918 26.8857C148.915 27.2158 147.125 27.3809 144.548 27.3809C142.796 27.3809 141.558 27.2285 140.834 26.9238C140.085 26.6064 139.711 26.0923 139.711 25.3813C139.711 25.1274 139.749 24.9434 139.825 24.8291C139.901 24.7021 140.155 24.4038 140.587 23.9341C141.094 23.4009 141.348 21.6235 141.348 18.6021C141.348 16.8501 141.145 15.5552 140.739 14.7173C140.409 14.0444 139.8 13.708 138.911 13.708C138.06 13.708 137.476 13.981 137.159 14.5269C136.842 15.0728 136.683 16.063 136.683 17.4976V21.2681C136.683 22.0171 136.727 22.5312 136.816 22.8105C136.918 23.0898 137.235 23.6294 137.768 24.4292C137.908 24.6577 137.978 24.918 137.978 25.21C137.978 25.959 137.457 26.5112 136.416 26.8667C135.375 27.2222 133.75 27.3999 131.541 27.3999C128.012 27.3999 126.247 26.6699 126.247 25.21C126.247 24.9053 126.298 24.6768 126.4 24.5244C126.514 24.3594 126.774 24.1309 127.18 23.8389C127.51 23.5977 127.72 23.3247 127.809 23.02C127.898 22.7026 127.98 21.9346 128.056 20.7158C128.145 19.2686 128.19 17.7515 128.19 16.1646C128.19 15.2886 128.12 14.7173 127.98 14.4507C127.853 14.1714 127.472 13.835 126.838 13.4414C126.292 13.0986 126.019 12.6797 126.019 12.1846C126.019 11.6768 126.241 11.2642 126.685 10.9468C127.13 10.6167 128.044 10.2041 129.427 9.70898C130.646 9.27734 131.821 8.91553 132.95 8.62354C134.08 8.31885 134.855 8.1665 135.274 8.1665C135.654 8.1665 135.972 8.30615 136.226 8.58545C136.492 8.86475 136.626 9.19482 136.626 9.57568C136.626 9.61377 136.619 9.77246 136.607 10.0518C136.594 10.1533 136.588 10.2422 136.588 10.3184C136.588 10.9277 136.842 11.2324 137.349 11.2324C137.654 11.2324 137.978 10.9912 138.321 10.5088C139.412 8.93457 140.999 8.14746 143.081 8.14746C144.681 8.14746 146.052 8.56641 147.195 9.4043C147.994 10.001 148.553 10.7056 148.87 11.5181C149.188 12.3179 149.384 13.4985 149.461 15.0601ZM161.888 13.0225V19.459C161.888 20.2207 162.072 20.8428 162.44 21.3252C162.821 21.8076 163.304 22.0488 163.888 22.0488C164.383 22.0488 165.037 21.8203 165.849 21.3633C166.039 21.249 166.23 21.1919 166.42 21.1919C166.725 21.1919 167.004 21.376 167.258 21.7441C167.512 22.1123 167.639 22.5122 167.639 22.9438C167.639 23.731 167.207 24.4863 166.344 25.21C164.541 26.7461 162.358 27.5142 159.793 27.5142C157.762 27.5142 156.131 26.9429 154.899 25.8003C153.668 24.645 153.052 23.1279 153.052 21.249V12.4512C153.052 12.1592 153.014 11.9814 152.938 11.918C152.874 11.8418 152.697 11.8037 152.405 11.8037H150.443C150.075 11.8037 149.84 11.7466 149.739 11.6323C149.637 11.5054 149.586 11.2197 149.586 10.7754V9.9375C149.599 9.55664 149.745 9.27734 150.024 9.09961L158.746 3.61523C158.962 3.50098 159.228 3.44385 159.546 3.44385H161.088C161.406 3.44385 161.615 3.52002 161.717 3.67236C161.831 3.81201 161.888 4.09766 161.888 4.5293V7.1001C161.888 7.48096 161.945 7.72852 162.059 7.84277C162.186 7.95703 162.447 8.01416 162.84 8.01416H166.363C166.833 8.01416 167.138 8.10303 167.277 8.28076C167.417 8.4458 167.487 8.80762 167.487 9.36621V10.4897C167.487 11.0991 167.398 11.5244 167.22 11.7656C167.042 11.9941 166.719 12.1084 166.249 12.1084H162.802C162.447 12.1084 162.205 12.1719 162.079 12.2988C161.952 12.4258 161.888 12.667 161.888 13.0225ZM177.115 9.11865V19.4399C177.115 21.6489 177.845 22.7534 179.305 22.7534C179.673 22.7534 180.035 22.6519 180.39 22.4487C180.746 22.2329 180.993 21.9727 181.133 21.668C181.412 21.0586 181.552 19.7002 181.552 17.5928C181.552 15.5107 181.482 14.0889 181.342 13.3271C181.292 13.0098 181.203 12.7812 181.076 12.6416C180.949 12.4893 180.708 12.3179 180.352 12.1274C179.629 11.7466 179.267 11.2642 179.267 10.6802C179.267 9.89307 179.889 9.34717 181.133 9.04248C183.494 8.4585 185.824 8.1665 188.122 8.1665C189.404 8.1665 190.045 8.8457 190.045 10.2041C190.045 10.3438 190.039 10.6294 190.026 11.061C190.001 11.6704 189.982 12.4131 189.969 13.2891V21.687C189.969 22.1187 190.337 22.5122 191.073 22.8677C191.695 23.1724 192.006 23.6167 192.006 24.2007C192.006 25.3433 190.654 26.2256 187.95 26.8477C186.363 27.2158 184.827 27.3999 183.342 27.3999C182.733 27.3999 182.314 27.3301 182.085 27.1904C181.869 27.0508 181.742 26.7778 181.704 26.3716C181.641 25.5845 181.4 25.1909 180.981 25.1909C180.828 25.1909 180.689 25.229 180.562 25.3052C180.435 25.3687 180.047 25.6226 179.4 26.0669C178.118 26.9429 176.74 27.3809 175.268 27.3809C172.83 27.3809 171.11 26.6763 170.107 25.2671C169.256 24.0864 168.831 22.0996 168.831 19.3066C168.831 18.2656 168.837 17.377 168.85 16.6406C168.85 16.209 168.85 15.917 168.85 15.7646C168.85 14.6729 168.749 13.873 168.546 13.3652C168.355 12.8447 168 12.4385 167.479 12.1465C166.984 11.8926 166.667 11.6895 166.527 11.5371C166.4 11.3848 166.337 11.1753 166.337 10.9087C166.337 9.94385 167.066 9.30273 168.526 8.98535C171.015 8.43945 173.503 8.1665 175.991 8.1665C176.74 8.1665 177.115 8.48389 177.115 9.11865ZM200.054 8.14746C200.727 8.14746 201.133 8.24268 201.273 8.43311C201.425 8.62354 201.558 9.23291 201.673 10.2612C201.736 10.8198 201.933 11.0991 202.263 11.0991C202.517 11.0991 202.758 10.915 202.987 10.5469C204.002 8.95996 205.329 8.1665 206.967 8.1665C208.122 8.1665 209.068 8.54102 209.804 9.29004C210.159 9.6582 210.451 10.1343 210.68 10.7183C210.908 11.2896 211.023 11.8418 211.023 12.375C211.023 12.9717 210.883 13.5874 210.604 14.2222C210.325 14.8442 209.963 15.3584 209.518 15.7646C208.706 16.5391 207.709 16.9263 206.529 16.9263C205.881 16.9263 205.335 16.812 204.891 16.5835C204.459 16.355 203.888 15.8916 203.177 15.1934C202.91 14.9268 202.663 14.7935 202.434 14.7935C202.079 14.7935 201.844 14.9966 201.73 15.4028C201.628 15.7964 201.577 16.6343 201.577 17.9165C201.577 19.8335 201.647 21.1411 201.787 21.8394C201.876 22.2202 201.996 22.4868 202.149 22.6392C202.314 22.7788 202.657 22.9248 203.177 23.0771C204.32 23.4199 204.891 24.0166 204.891 24.8672C204.891 25.3877 204.707 25.8447 204.339 26.2383C203.971 26.6191 203.482 26.873 202.872 27C201.654 27.2539 199.864 27.3809 197.502 27.3809C195.255 27.3809 193.548 27.1841 192.38 26.7905C191.339 26.4351 190.818 25.8193 190.818 24.9434C190.818 24.2832 191.199 23.6929 191.961 23.1724C192.329 22.9312 192.583 22.7153 192.722 22.5249C192.862 22.3218 192.957 22.0488 193.008 21.7061C193.211 20.5508 193.313 18.4116 193.313 15.2886C193.313 14.7173 193.249 14.311 193.122 14.0698C192.995 13.8159 192.742 13.6128 192.361 13.4604C191.459 13.105 191.009 12.5908 191.009 11.918C191.009 11.3086 191.32 10.7881 191.942 10.3564C192.564 9.91211 193.605 9.47412 195.065 9.04248C197.02 8.4585 198.683 8.16016 200.054 8.14746ZM227.259 18.4688H218.309C217.915 18.4688 217.718 18.6401 217.718 18.9829C217.718 19.8081 218.163 20.5889 219.051 21.3252C219.953 22.0488 220.917 22.4106 221.946 22.4106C222.555 22.4106 223.228 22.2964 223.964 22.0679C224.713 21.8267 225.329 21.5347 225.812 21.1919C226.243 20.8872 226.586 20.7349 226.84 20.7349C227.17 20.7349 227.494 20.938 227.811 21.3442C228.128 21.7505 228.287 22.1694 228.287 22.6011C228.287 23.5151 227.716 24.3975 226.573 25.248C224.555 26.7588 222.225 27.5142 219.584 27.5142C216.918 27.5142 214.684 26.7397 212.881 25.1909C212.005 24.4292 211.282 23.5088 210.71 22.4297C209.961 20.9951 209.587 19.4844 209.587 17.8975C209.587 15.7646 210.234 13.8477 211.529 12.1465C212.646 10.6738 214.068 9.57568 215.795 8.85205C217.09 8.30615 218.493 8.0332 220.003 8.0332C222.416 8.0332 224.466 8.71875 226.154 10.0898C227.005 10.7754 227.69 11.5879 228.211 12.5273C228.808 13.5938 229.106 14.6348 229.106 15.6504C229.106 16.4756 228.935 17.1548 228.592 17.688C228.249 18.2085 227.805 18.4688 227.259 18.4688ZM218.804 14.9077H220.727C221.54 14.9077 221.946 14.5332 221.946 13.7842C221.946 13.0986 221.749 12.54 221.355 12.1084C220.962 11.6768 220.448 11.4609 219.813 11.4609C219.102 11.4609 218.543 11.7402 218.137 12.2988C217.756 12.8193 217.566 13.3462 217.566 13.8794C217.566 14.2603 217.655 14.5269 217.833 14.6792C218.023 14.8315 218.347 14.9077 218.804 14.9077Z" fill="#F7F7F7"/>
</svg>
