<svg width="177" height="22" viewBox="0 0 177 22" fill="none" xmlns="http://www.w3.org/2000/svg">
<path d="M6.88477 0.682617C9.93164 0.682617 11.4551 1.3125 11.4551 2.57227C11.4551 2.91406 11.377 3.19238 11.2207 3.40723C11.0645 3.62207 10.7666 3.86133 10.3271 4.125C9.94629 4.35938 9.70215 4.66699 9.59473 5.04785C9.49707 5.42871 9.44824 6.2002 9.44824 7.3623C9.44824 8.0459 9.5752 8.46582 9.8291 8.62207C9.97559 8.71973 10.1953 8.77832 10.4883 8.79785C10.791 8.81738 11.4941 8.82715 12.5977 8.82715C13.6035 8.82715 14.2285 8.77344 14.4727 8.66602C14.7168 8.55859 14.8389 8.29004 14.8389 7.86035C14.8389 6.57129 14.7803 5.67285 14.6631 5.16504C14.5459 4.65723 14.3164 4.31055 13.9746 4.125C13.5449 3.88086 13.2617 3.67578 13.125 3.50977C12.9883 3.33398 12.9199 3.10449 12.9199 2.82129C12.9199 2.4209 13.0713 2.05957 13.374 1.7373C13.6768 1.40527 14.0723 1.18066 14.5605 1.06348C15.5762 0.819336 16.8506 0.697266 18.3838 0.697266C20.1807 0.697266 21.5039 0.863281 22.3535 1.19531C23.2129 1.51758 23.6426 2.02539 23.6426 2.71875C23.6426 3.30469 23.3398 3.74414 22.7344 4.03711C22.3535 4.21289 22.1045 4.38379 21.9873 4.5498C21.8701 4.70605 21.7773 5.00391 21.709 5.44336C21.6699 5.6875 21.6211 6.77148 21.5625 8.69531C21.5039 10.6191 21.4746 12.1475 21.4746 13.2803C21.4746 15.2627 21.5479 16.5225 21.6943 17.0596C21.7725 17.3525 21.8604 17.5479 21.958 17.6455C22.0557 17.7432 22.3633 17.9385 22.8809 18.2314C23.252 18.4365 23.4375 18.749 23.4375 19.1689C23.4375 19.9111 22.9932 20.4531 22.1045 20.7949C21.2256 21.127 19.7949 21.293 17.8125 21.293C16.0742 21.293 14.79 21.1221 13.96 20.7803C13.208 20.4678 12.832 19.9844 12.832 19.3301C12.832 18.7734 13.1201 18.3389 13.6963 18.0264C13.9795 17.8701 14.1699 17.7139 14.2676 17.5576C14.375 17.4014 14.4775 17.1133 14.5752 16.6934C14.751 15.873 14.8389 14.8672 14.8389 13.6758C14.8389 13.0605 14.7461 12.6797 14.5605 12.5332C14.3848 12.3867 13.916 12.3135 13.1543 12.3135C11.4062 12.3135 10.293 12.4111 9.81445 12.6064C9.61914 12.6846 9.49707 12.9141 9.44824 13.2949C9.38965 13.7637 9.36035 14.3398 9.36035 15.0234C9.36035 16.1367 9.5166 16.9375 9.8291 17.4258C9.93652 17.582 10.1904 17.7822 10.5908 18.0264C11.001 18.2607 11.2061 18.6465 11.2061 19.1836C11.2061 19.8672 10.7324 20.3896 9.78516 20.751C8.83789 21.1123 7.48535 21.293 5.72754 21.293C4.12598 21.293 2.81738 21.127 1.80176 20.7949C1.3623 20.6484 1.01562 20.4434 0.761719 20.1797C0.517578 19.9062 0.395508 19.6084 0.395508 19.2861C0.395508 18.9639 0.473633 18.7148 0.629883 18.5391C0.786133 18.3633 1.12793 18.1387 1.65527 17.8652C1.92871 17.7285 2.11914 17.5527 2.22656 17.3379C2.34375 17.123 2.43164 16.7617 2.49023 16.2539C2.63672 15.1113 2.70996 13.6172 2.70996 11.7715C2.70996 11.4297 2.70508 11.0244 2.69531 10.5557C2.65625 8.21191 2.63672 6.87402 2.63672 6.54199C2.64648 5.70215 2.57324 5.15039 2.41699 4.88672C2.27051 4.61328 1.875 4.31543 1.23047 3.99316C0.800781 3.78809 0.585938 3.48047 0.585938 3.07031C0.585938 2.08398 1.54297 1.40039 3.45703 1.01953C4.57031 0.794922 5.71289 0.682617 6.88477 0.682617ZM31.2539 7.4209V15.9316C31.2539 16.6055 31.3125 17.0986 31.4297 17.4111C31.5566 17.7236 31.8057 18.0117 32.1768 18.2754C32.4795 18.4902 32.6797 18.6758 32.7773 18.832C32.8848 18.9785 32.9385 19.1689 32.9385 19.4033C32.9385 20.6631 31.3418 21.293 28.1484 21.293C26.4297 21.293 25.0674 21.1562 24.0615 20.8828C23.7197 20.7852 23.4414 20.6143 23.2266 20.3701C23.0215 20.126 22.9189 19.8477 22.9189 19.5352C22.9189 19.2715 22.9727 19.0664 23.0801 18.9199C23.1875 18.7734 23.4609 18.5391 23.9004 18.2168C24.2031 17.9922 24.418 17.626 24.5449 17.1182C24.6719 16.6104 24.7354 15.8535 24.7354 14.8477C24.7354 14.5254 24.7109 13.9248 24.6621 13.0459C24.623 12.1572 24.5938 11.6396 24.5742 11.4932C24.5156 11.0928 24.2422 10.7852 23.7539 10.5703C23.1484 10.3066 22.8457 9.91602 22.8457 9.39844C22.8457 8.7832 23.2412 8.32422 24.0322 8.02148C25.126 7.60156 26.2979 7.24512 27.5479 6.95215C28.7979 6.65918 29.7646 6.5127 30.4482 6.5127C30.9854 6.5127 31.2539 6.81543 31.2539 7.4209ZM28.3535 1.00488C29.2031 1.00488 29.877 1.16602 30.375 1.48828C30.873 1.80078 31.1221 2.22559 31.1221 2.7627C31.1221 3.51465 30.7461 4.11035 29.9941 4.5498C28.8027 5.24316 27.3623 5.58984 25.6729 5.58984C24.96 5.58984 24.3936 5.45313 23.9736 5.17969C23.4072 4.82812 23.124 4.33984 23.124 3.71484C23.124 2.875 23.7246 2.21582 24.9258 1.7373C26.1465 1.24902 27.2891 1.00488 28.3535 1.00488ZM40.7842 1.72266L40.6523 6.30762C40.6426 6.7666 40.6377 7.44043 40.6377 8.3291C40.6377 9.31543 40.6523 9.89648 40.6816 10.0723C40.75 10.4727 40.9551 10.6729 41.2969 10.6729C41.5898 10.6729 42.0391 10.4873 42.6445 10.1162C43.25 9.73535 43.5527 9.45215 43.5527 9.2666C43.5527 9.15918 43.4453 8.96387 43.2305 8.68066C43.0742 8.47559 42.9961 8.28027 42.9961 8.09473C42.9961 7.04004 44.2949 6.5127 46.8926 6.5127C48.2402 6.5127 49.3047 6.64941 50.0859 6.92285C50.3984 7.03027 50.6572 7.21582 50.8623 7.47949C51.0674 7.74316 51.1699 8.02637 51.1699 8.3291C51.1699 8.76855 50.96 9.07617 50.54 9.25195C50.4521 9.29102 50.1689 9.35449 49.6904 9.44238C49.2607 9.52051 48.7041 9.78906 48.0205 10.248C47.3369 10.6973 46.9951 11.0244 46.9951 11.2295C46.9951 11.3662 47.4053 12.0107 48.2256 13.1631C49.0557 14.3057 49.8271 15.3018 50.54 16.1514C50.999 16.708 51.3555 17.0986 51.6094 17.3232C51.873 17.5479 52.2344 17.7871 52.6934 18.041C53.3965 18.4219 53.748 18.8564 53.748 19.3447C53.748 19.8623 53.5234 20.2676 53.0742 20.5605C52.6348 20.8535 52.0293 21 51.2578 21H46.5117C45.916 20.9902 45.4521 20.7705 45.1201 20.3408L42.6885 17.2207C42.0439 16.4004 41.6484 15.9121 41.502 15.7559C41.3652 15.5996 41.248 15.5215 41.1504 15.5215C41.0332 15.5215 40.9551 15.6094 40.916 15.7852C40.877 15.9609 40.8574 16.293 40.8574 16.7812C40.8574 17.2207 40.9062 17.543 41.0039 17.748C41.1016 17.9434 41.3262 18.1826 41.6777 18.4658C41.9316 18.6709 42.0586 18.9736 42.0586 19.374C42.0586 20.0576 41.6973 20.5508 40.9746 20.8535C40.252 21.1562 39.0605 21.3076 37.4004 21.3076C35.4473 21.3076 34.1777 21.2246 33.5918 21.0586C33.2598 20.9609 32.9766 20.7656 32.7422 20.4727C32.5078 20.1699 32.3906 19.8525 32.3906 19.5205C32.3906 19.1494 32.5957 18.8271 33.0059 18.5537C33.3574 18.3291 33.582 18.1582 33.6797 18.041C33.7773 17.9238 33.8555 17.7383 33.9141 17.4844C34.1387 16.1172 34.2461 14.0078 34.2363 11.1562V7.94824C34.2363 6.85449 34.1777 6.15625 34.0605 5.85352C33.9531 5.55078 33.6797 5.37012 33.2402 5.31152C32.4395 5.2041 32.0391 4.87207 32.0391 4.31543C32.0391 3.94434 32.2148 3.6123 32.5664 3.31934C32.918 3.0166 33.4941 2.71875 34.2949 2.42578C36.8535 1.47852 38.748 1.00488 39.9785 1.00488C40.5352 1.00488 40.8037 1.24414 40.7842 1.72266ZM65.8418 14.4375H58.957C58.6543 14.4375 58.5029 14.5693 58.5029 14.833C58.5029 15.4678 58.8447 16.0684 59.5283 16.6348C60.2217 17.1914 60.9639 17.4697 61.7549 17.4697C62.2236 17.4697 62.7412 17.3818 63.3076 17.2061C63.8838 17.0205 64.3574 16.7959 64.7285 16.5322C65.0605 16.2979 65.3242 16.1807 65.5195 16.1807C65.7734 16.1807 66.0225 16.3369 66.2666 16.6494C66.5107 16.9619 66.6328 17.2842 66.6328 17.6162C66.6328 18.3193 66.1934 18.998 65.3145 19.6523C63.7617 20.8145 61.9697 21.3955 59.9385 21.3955C57.8877 21.3955 56.1689 20.7998 54.7822 19.6084C54.1084 19.0225 53.5518 18.3145 53.1123 17.4844C52.5361 16.3809 52.248 15.2188 52.248 13.998C52.248 12.3574 52.7461 10.8828 53.7422 9.57422C54.6016 8.44141 55.6953 7.59668 57.0234 7.04004C58.0195 6.62012 59.0986 6.41016 60.2607 6.41016C62.1162 6.41016 63.6934 6.9375 64.9922 7.99219C65.6465 8.51953 66.1738 9.14453 66.5742 9.86719C67.0332 10.6875 67.2627 11.4883 67.2627 12.2695C67.2627 12.9043 67.1309 13.4268 66.8672 13.8369C66.6035 14.2373 66.2617 14.4375 65.8418 14.4375ZM59.3379 11.6982H60.8174C61.4424 11.6982 61.7549 11.4102 61.7549 10.834C61.7549 10.3066 61.6035 9.87695 61.3008 9.54492C60.998 9.21289 60.6025 9.04688 60.1143 9.04688C59.5674 9.04688 59.1377 9.26172 58.8252 9.69141C58.5322 10.0918 58.3857 10.4971 58.3857 10.9072C58.3857 11.2002 58.4541 11.4053 58.5908 11.5225C58.7373 11.6396 58.9863 11.6982 59.3379 11.6982ZM81.7441 10.9951L77.9502 18.3779C77.3643 19.5205 76.8662 20.3164 76.4561 20.7656C76.0459 21.2051 75.6064 21.4248 75.1377 21.4248C74.6787 21.4248 74.3076 21.2588 74.0244 20.9268C73.4287 20.2627 72.9062 19.5107 72.457 18.6709L68.2969 10.7754C68.0723 10.3457 67.8525 10.0381 67.6377 9.85254C67.4326 9.65723 67.1445 9.51074 66.7734 9.41309C66.0312 9.19824 65.6602 8.79785 65.6602 8.21191C65.6602 7.61621 66.1191 7.18164 67.0371 6.9082C67.9551 6.63477 69.4053 6.49805 71.3877 6.49805C73.0479 6.49805 74.2686 6.62012 75.0498 6.86426C75.8408 7.09863 76.2363 7.46484 76.2363 7.96289C76.2363 8.31445 76.0508 8.65137 75.6797 8.97363C75.4453 9.18848 75.2939 9.34961 75.2256 9.45703C75.1572 9.56445 75.123 9.70117 75.123 9.86719C75.123 10.1992 75.3379 10.751 75.7676 11.5225C76.1973 12.2744 76.5977 12.6504 76.9688 12.6504C77.2129 12.6504 77.4131 12.5576 77.5693 12.3721C77.7256 12.1865 78.0088 11.708 78.4189 10.9365C78.7217 10.3701 78.873 9.94043 78.873 9.64746C78.873 9.41309 78.7168 9.13477 78.4043 8.8125C78.0723 8.46094 77.9062 8.13379 77.9062 7.83105C77.9062 7.3623 78.2139 7.02539 78.8291 6.82031C79.4541 6.61523 80.4746 6.5127 81.8906 6.5127C83.8828 6.5127 84.8789 6.94238 84.8789 7.80176C84.8789 8.2998 84.5225 8.66113 83.8096 8.88574C83.2529 9.06152 82.8721 9.25195 82.667 9.45703C82.4717 9.66211 82.1641 10.1748 81.7441 10.9951ZM96.3281 14.4375H89.4434C89.1406 14.4375 88.9893 14.5693 88.9893 14.833C88.9893 15.4678 89.3311 16.0684 90.0146 16.6348C90.708 17.1914 91.4502 17.4697 92.2412 17.4697C92.71 17.4697 93.2275 17.3818 93.7939 17.2061C94.3701 17.0205 94.8438 16.7959 95.2148 16.5322C95.5469 16.2979 95.8105 16.1807 96.0059 16.1807C96.2598 16.1807 96.5088 16.3369 96.7529 16.6494C96.9971 16.9619 97.1191 17.2842 97.1191 17.6162C97.1191 18.3193 96.6797 18.998 95.8008 19.6523C94.248 20.8145 92.4561 21.3955 90.4248 21.3955C88.374 21.3955 86.6553 20.7998 85.2686 19.6084C84.5947 19.0225 84.0381 18.3145 83.5986 17.4844C83.0225 16.3809 82.7344 15.2188 82.7344 13.998C82.7344 12.3574 83.2324 10.8828 84.2285 9.57422C85.0879 8.44141 86.1816 7.59668 87.5098 7.04004C88.5059 6.62012 89.585 6.41016 90.7471 6.41016C92.6025 6.41016 94.1797 6.9375 95.4785 7.99219C96.1328 8.51953 96.6602 9.14453 97.0605 9.86719C97.5195 10.6875 97.749 11.4883 97.749 12.2695C97.749 12.9043 97.6172 13.4268 97.3535 13.8369C97.0898 14.2373 96.748 14.4375 96.3281 14.4375ZM89.8242 11.6982H91.3037C91.9287 11.6982 92.2412 11.4102 92.2412 10.834C92.2412 10.3066 92.0898 9.87695 91.7871 9.54492C91.4844 9.21289 91.0889 9.04688 90.6006 9.04688C90.0537 9.04688 89.624 9.26172 89.3115 9.69141C89.0186 10.0918 88.8721 10.4971 88.8721 10.9072C88.8721 11.2002 88.9404 11.4053 89.0771 11.5225C89.2236 11.6396 89.4727 11.6982 89.8242 11.6982ZM114.97 11.8154L115.175 16.9717C115.194 17.3623 115.253 17.6504 115.351 17.8359C115.458 18.0215 115.761 18.3779 116.259 18.9053C116.405 19.0615 116.479 19.2812 116.479 19.5645C116.479 20.209 116.093 20.6582 115.321 20.9121C114.55 21.166 113.173 21.293 111.19 21.293C109.843 21.293 108.891 21.1758 108.334 20.9414C107.758 20.6973 107.47 20.3018 107.47 19.7549C107.47 19.5596 107.499 19.418 107.558 19.3301C107.616 19.2324 107.812 19.0029 108.144 18.6416C108.534 18.2314 108.729 16.8643 108.729 14.54C108.729 13.1924 108.573 12.1963 108.261 11.5518C108.007 11.0342 107.538 10.7754 106.854 10.7754C106.2 10.7754 105.751 10.9854 105.507 11.4053C105.263 11.8252 105.141 12.5869 105.141 13.6904V16.5908C105.141 17.167 105.175 17.5625 105.243 17.7773C105.321 17.9922 105.565 18.4072 105.976 19.0225C106.083 19.1982 106.137 19.3984 106.137 19.623C106.137 20.1992 105.736 20.624 104.936 20.8975C104.135 21.1709 102.885 21.3076 101.186 21.3076C98.4707 21.3076 97.1133 20.7461 97.1133 19.623C97.1133 19.3887 97.1523 19.2129 97.2305 19.0957C97.3184 18.9688 97.5186 18.793 97.8311 18.5684C98.085 18.3828 98.2461 18.1729 98.3145 17.9385C98.3828 17.6943 98.4463 17.1035 98.5049 16.166C98.5732 15.0527 98.6074 13.8857 98.6074 12.665C98.6074 11.9912 98.5537 11.5518 98.4463 11.3467C98.3486 11.1318 98.0557 10.873 97.5674 10.5703C97.1475 10.3066 96.9375 9.98438 96.9375 9.60352C96.9375 9.21289 97.1084 8.89551 97.4502 8.65137C97.792 8.39746 98.4951 8.08008 99.5596 7.69922C100.497 7.36719 101.4 7.08887 102.27 6.86426C103.139 6.62988 103.734 6.5127 104.057 6.5127C104.35 6.5127 104.594 6.62012 104.789 6.83496C104.994 7.0498 105.097 7.30371 105.097 7.59668C105.097 7.62598 105.092 7.74805 105.082 7.96289C105.072 8.04102 105.067 8.10938 105.067 8.16797C105.067 8.63672 105.263 8.87109 105.653 8.87109C105.888 8.87109 106.137 8.68555 106.4 8.31445C107.24 7.10352 108.461 6.49805 110.062 6.49805C111.293 6.49805 112.348 6.82031 113.227 7.46484C113.842 7.92383 114.271 8.46582 114.516 9.09082C114.76 9.70605 114.911 10.6143 114.97 11.8154ZM124.529 10.248V15.1992C124.529 15.7852 124.671 16.2637 124.954 16.6348C125.247 17.0059 125.618 17.1914 126.067 17.1914C126.448 17.1914 126.951 17.0156 127.576 16.6641C127.723 16.5762 127.869 16.5322 128.016 16.5322C128.25 16.5322 128.465 16.6738 128.66 16.957C128.855 17.2402 128.953 17.5479 128.953 17.8799C128.953 18.4854 128.621 19.0664 127.957 19.623C126.57 20.8047 124.891 21.3955 122.918 21.3955C121.355 21.3955 120.101 20.9561 119.153 20.0771C118.206 19.1885 117.732 18.0215 117.732 16.5762V9.80859C117.732 9.58398 117.703 9.44727 117.645 9.39844C117.596 9.33984 117.459 9.31055 117.234 9.31055H115.726C115.442 9.31055 115.262 9.2666 115.184 9.17871C115.105 9.08105 115.066 8.86133 115.066 8.51953V7.875C115.076 7.58203 115.188 7.36719 115.403 7.23047L122.112 3.01172C122.278 2.92383 122.483 2.87988 122.728 2.87988H123.914C124.158 2.87988 124.319 2.93848 124.397 3.05566C124.485 3.16309 124.529 3.38281 124.529 3.71484V5.69238C124.529 5.98535 124.573 6.17578 124.661 6.26367C124.759 6.35156 124.959 6.39551 125.262 6.39551H127.972C128.333 6.39551 128.567 6.46387 128.675 6.60059C128.782 6.72754 128.836 7.00586 128.836 7.43555V8.2998C128.836 8.76855 128.768 9.0957 128.631 9.28125C128.494 9.45703 128.245 9.54492 127.884 9.54492H125.232C124.959 9.54492 124.773 9.59375 124.676 9.69141C124.578 9.78906 124.529 9.97461 124.529 10.248ZM136.242 7.24512V15.1846C136.242 16.8838 136.804 17.7334 137.927 17.7334C138.21 17.7334 138.488 17.6553 138.762 17.499C139.035 17.333 139.226 17.1328 139.333 16.8984C139.548 16.4297 139.655 15.3848 139.655 13.7637C139.655 12.1621 139.602 11.0684 139.494 10.4824C139.455 10.2383 139.387 10.0625 139.289 9.95508C139.191 9.83789 139.006 9.70605 138.732 9.55957C138.176 9.2666 137.897 8.89551 137.897 8.44629C137.897 7.84082 138.376 7.4209 139.333 7.18652C141.149 6.7373 142.941 6.5127 144.709 6.5127C145.695 6.5127 146.188 7.03516 146.188 8.08008C146.188 8.1875 146.184 8.40723 146.174 8.73926C146.154 9.20801 146.14 9.7793 146.13 10.4531V16.9131C146.13 17.2451 146.413 17.5479 146.979 17.8213C147.458 18.0557 147.697 18.3975 147.697 18.8467C147.697 19.7256 146.657 20.4043 144.577 20.8828C143.356 21.166 142.175 21.3076 141.032 21.3076C140.563 21.3076 140.241 21.2539 140.065 21.1465C139.899 21.0391 139.802 20.8291 139.772 20.5166C139.724 19.9111 139.538 19.6084 139.216 19.6084C139.099 19.6084 138.991 19.6377 138.894 19.6963C138.796 19.7451 138.498 19.9404 138 20.2822C137.014 20.9561 135.954 21.293 134.821 21.293C132.946 21.293 131.623 20.751 130.852 19.667C130.197 18.7588 129.87 17.2305 129.87 15.082C129.87 14.2812 129.875 13.5977 129.885 13.0312C129.885 12.6992 129.885 12.4746 129.885 12.3574C129.885 11.5176 129.807 10.9023 129.65 10.5117C129.504 10.1113 129.23 9.79883 128.83 9.57422C128.449 9.37891 128.205 9.22266 128.098 9.10547C128 8.98828 127.951 8.82715 127.951 8.62207C127.951 7.87988 128.513 7.38672 129.636 7.14258C131.55 6.72266 133.464 6.5127 135.378 6.5127C135.954 6.5127 136.242 6.75684 136.242 7.24512ZM153.888 6.49805C154.405 6.49805 154.718 6.57129 154.825 6.71777C154.942 6.86426 155.045 7.33301 155.133 8.12402C155.182 8.55371 155.333 8.76855 155.587 8.76855C155.782 8.76855 155.968 8.62695 156.144 8.34375C156.925 7.12305 157.945 6.5127 159.205 6.5127C160.094 6.5127 160.821 6.80078 161.388 7.37695C161.661 7.66016 161.886 8.02637 162.062 8.47559C162.237 8.91504 162.325 9.33984 162.325 9.75C162.325 10.209 162.218 10.6826 162.003 11.1709C161.788 11.6494 161.51 12.0449 161.168 12.3574C160.543 12.9531 159.776 13.251 158.868 13.251C158.37 13.251 157.95 13.1631 157.608 12.9873C157.276 12.8115 156.837 12.4551 156.29 11.918C156.085 11.7129 155.895 11.6104 155.719 11.6104C155.445 11.6104 155.265 11.7666 155.177 12.0791C155.099 12.3818 155.06 13.0264 155.06 14.0127C155.06 15.4873 155.113 16.4932 155.221 17.0303C155.289 17.3232 155.382 17.5283 155.499 17.6455C155.626 17.7529 155.89 17.8652 156.29 17.9824C157.169 18.2461 157.608 18.7051 157.608 19.3594C157.608 19.7598 157.467 20.1113 157.184 20.4141C156.9 20.707 156.524 20.9023 156.056 21C155.118 21.1953 153.741 21.293 151.925 21.293C150.196 21.293 148.883 21.1416 147.984 20.8389C147.184 20.5654 146.783 20.0918 146.783 19.418C146.783 18.9102 147.076 18.4561 147.662 18.0557C147.945 17.8701 148.141 17.7041 148.248 17.5576C148.355 17.4014 148.429 17.1914 148.468 16.9277C148.624 16.0391 148.702 14.3936 148.702 11.9912C148.702 11.5518 148.653 11.2393 148.556 11.0537C148.458 10.8584 148.263 10.7021 147.97 10.585C147.276 10.3115 146.93 9.91602 146.93 9.39844C146.93 8.92969 147.169 8.5293 147.647 8.19727C148.126 7.85547 148.927 7.51855 150.05 7.18652C151.554 6.7373 152.833 6.50781 153.888 6.49805ZM174.814 14.4375H167.93C167.627 14.4375 167.476 14.5693 167.476 14.833C167.476 15.4678 167.817 16.0684 168.501 16.6348C169.194 17.1914 169.937 17.4697 170.728 17.4697C171.196 17.4697 171.714 17.3818 172.28 17.2061C172.856 17.0205 173.33 16.7959 173.701 16.5322C174.033 16.2979 174.297 16.1807 174.492 16.1807C174.746 16.1807 174.995 16.3369 175.239 16.6494C175.483 16.9619 175.605 17.2842 175.605 17.6162C175.605 18.3193 175.166 18.998 174.287 19.6523C172.734 20.8145 170.942 21.3955 168.911 21.3955C166.86 21.3955 165.142 20.7998 163.755 19.6084C163.081 19.0225 162.524 18.3145 162.085 17.4844C161.509 16.3809 161.221 15.2188 161.221 13.998C161.221 12.3574 161.719 10.8828 162.715 9.57422C163.574 8.44141 164.668 7.59668 165.996 7.04004C166.992 6.62012 168.071 6.41016 169.233 6.41016C171.089 6.41016 172.666 6.9375 173.965 7.99219C174.619 8.51953 175.146 9.14453 175.547 9.86719C176.006 10.6875 176.235 11.4883 176.235 12.2695C176.235 12.9043 176.104 13.4268 175.84 13.8369C175.576 14.2373 175.234 14.4375 174.814 14.4375ZM168.311 11.6982H169.79C170.415 11.6982 170.728 11.4102 170.728 10.834C170.728 10.3066 170.576 9.87695 170.273 9.54492C169.971 9.21289 169.575 9.04688 169.087 9.04688C168.54 9.04688 168.11 9.26172 167.798 9.69141C167.505 10.0918 167.358 10.4971 167.358 10.9072C167.358 11.2002 167.427 11.4053 167.563 11.5225C167.71 11.6396 167.959 11.6982 168.311 11.6982Z" fill="#281A07"/>
</svg>
